<!DOCTYPE svg PUBLIC "-//W3C//DTD SVG 1.1//EN" "http://www.w3.org/Graphics/SVG/1.1/DTD/svg11.dtd">
<!-- Uploaded to: SVG Repo, www.svgrepo.com, Transformed by: SVG Repo Mixer Tools -->
<svg fill="white" height="800px" width="800px" version="1.1" id="Capa_1" xmlns="http://www.w3.org/2000/svg" xmlns:xlink="http://www.w3.org/1999/xlink" viewBox="0 0 470 470" xml:space="preserve" stroke="white">
<g id="SVGRepo_bgCarrier" stroke-width="0"/>
<g id="SVGRepo_tracerCarrier" stroke-linecap="round" stroke-linejoin="round"/>
<g id="SVGRepo_iconCarrier"> <g> <path d="M401.17,68.83C356.784,24.444,297.771,0,235,0S113.216,24.444,68.83,68.83C24.444,113.215,0,172.229,0,235 s24.444,121.785,68.83,166.17C113.216,445.556,172.229,470,235,470s121.784-24.444,166.17-68.83 C445.556,356.785,470,297.771,470,235S445.556,113.215,401.17,68.83z M235,455c-121.309,0-220-98.691-220-220S113.691,15,235,15 s220,98.691,220,220S356.309,455,235,455z"/> <path d="M425.22,311.407C434.744,287.781,440,261.994,440,235c0-0.939-0.002-1.878-0.016-2.814 c-0.03-2.142-0.975-4.168-2.595-5.569c-11.436-9.885-25.175-17.239-39.73-21.268c-0.318-0.085-0.612-0.146-0.911-0.19 c-0.054-0.008-0.108-0.011-0.163-0.018c-0.234-0.029-0.47-0.048-0.708-0.054c-0.089-0.003-0.177-0.003-0.266-0.003 c-0.207,0.001-0.414,0.013-0.623,0.032c-0.091,0.008-0.182,0.013-0.272,0.025c-0.254,0.032-0.509,0.078-0.763,0.137 c-0.061,0.014-0.122,0.03-0.183,0.046c-0.25,0.065-0.494,0.142-0.731,0.23c-0.084,0.031-0.166,0.068-0.248,0.103 c-0.196,0.081-0.386,0.168-0.572,0.263c-0.077,0.04-0.154,0.081-0.229,0.123c-0.209,0.117-0.411,0.243-0.605,0.379 c-0.044,0.031-0.09,0.058-0.134,0.09c-0.243,0.177-0.475,0.367-0.694,0.57c-4.271,3.995-8.124,8.303-11.596,12.865h-27.318V151.74 c14.077,3.387,24.571,16.075,24.571,31.176c0,4.142,3.357,7.5,7.5,7.5s7.5-3.358,7.5-7.5c0-16.558-8.602-31.136-21.564-39.529 c9.124,0.649,17.914,5.16,23.698,13.122c1.468,2.02,3.754,3.092,6.073,3.092c1.528,0,3.071-0.466,4.402-1.433 c3.352-2.435,4.094-7.125,1.659-10.476c-9.733-13.396-25.262-20.134-40.683-19.304c7.762-4.839,17.525-6.356,26.888-3.315 c3.936,1.281,8.171-0.875,9.45-4.815c1.28-3.939-0.876-8.17-4.815-9.45c-19.607-6.37-40.415,0.881-52.17,16.5 c-9.261-12.336-24.257-19.656-40.302-18.741c-4.135,0.238-7.295,3.783-7.057,7.918c0.236,4.135,3.767,7.295,7.918,7.058 c6.805-0.396,13.343,1.4,18.833,4.849c-15.44-0.85-30.996,5.888-40.741,19.301c-2.435,3.351-1.692,8.042,1.659,10.476 c1.331,0.967,2.873,1.433,4.402,1.433c2.318,0,4.605-1.072,6.073-3.092c5.785-7.962,14.575-12.473,23.698-13.121 c-12.962,8.393-21.564,22.971-21.564,39.529c0,4.142,3.357,7.5,7.5,7.5s7.5-3.358,7.5-7.5c0-15.101,10.494-27.789,24.57-31.176 v68.206H242.5V78.74c14.076,3.387,24.57,16.075,24.57,31.176c0,4.142,3.357,7.5,7.5,7.5s7.5-3.358,7.5-7.5 c0-16.558-8.602-31.136-21.564-39.529c9.124,0.649,17.914,5.16,23.699,13.122c1.468,2.02,3.754,3.092,6.073,3.092 c1.528,0,3.071-0.466,4.402-1.433c3.352-2.435,4.094-7.125,1.659-10.476c-9.733-13.396-25.261-20.133-40.682-19.304 c7.762-4.838,17.524-6.355,26.887-3.315c3.937,1.282,8.171-0.875,9.45-4.815c1.28-3.939-0.876-8.17-4.815-9.45 c-19.611-6.371-40.426,0.885-52.18,16.512c-11.755-15.627-32.571-22.883-52.18-16.512c-3.939,1.28-6.096,5.511-4.815,9.45 c1.279,3.94,5.516,6.098,9.45,4.815c9.362-3.043,19.126-1.525,26.889,3.315c-15.421-0.83-30.95,5.907-40.684,19.303 c-2.435,3.351-1.692,8.042,1.659,10.476c1.331,0.967,2.873,1.433,4.402,1.433c2.318,0,4.605-1.072,6.073-3.092 c5.785-7.961,14.574-12.472,23.698-13.121c-12.962,8.393-21.563,22.971-21.563,39.529c0,4.142,3.357,7.5,7.5,7.5s7.5-3.358,7.5-7.5 c0-15.101,10.494-27.789,24.57-31.176v141.206h-94.144V151.74c14.076,3.387,24.57,16.075,24.57,31.176c0,4.142,3.357,7.5,7.5,7.5 s7.5-3.358,7.5-7.5c0-16.558-8.602-31.136-21.563-39.529c9.124,0.649,17.913,5.16,23.698,13.121 c1.468,2.02,3.754,3.092,6.073,3.092c1.528,0,3.071-0.466,4.402-1.433c3.352-2.435,4.094-7.125,1.659-10.476 c-9.747-13.414-25.304-20.152-40.744-19.3c5.487-3.446,12.024-5.241,18.836-4.849c4.158,0.237,7.681-2.922,7.918-7.058 c0.238-4.135-2.922-7.68-7.057-7.918c-16.026-0.911-31.032,6.408-40.3,18.745c-11.756-15.621-32.568-22.873-52.173-16.503 c-3.939,1.28-6.096,5.511-4.815,9.45c1.28,3.941,5.517,6.097,9.45,4.815c9.362-3.042,19.125-1.524,26.888,3.315 c-15.42-0.829-30.949,5.908-40.683,19.303c-2.435,3.351-1.692,8.042,1.659,10.476c1.331,0.967,2.873,1.433,4.402,1.433 c2.318,0,4.605-1.072,6.073-3.092c5.785-7.961,14.574-12.472,23.698-13.121c-12.962,8.393-21.564,22.971-21.564,39.529 c0,4.142,3.357,7.5,7.5,7.5s7.5-3.358,7.5-7.5c0-15.101,10.494-27.789,24.571-31.176v68.206H91.038 c-3.472-4.563-7.325-8.87-11.572-12.845c-0.243-0.223-0.475-0.413-0.718-0.591c-0.044-0.032-0.089-0.059-0.134-0.09 c-0.195-0.135-0.396-0.261-0.605-0.378c-0.076-0.043-0.153-0.083-0.23-0.124c-0.186-0.096-0.377-0.183-0.573-0.264 c-0.082-0.034-0.163-0.071-0.246-0.102c-0.241-0.089-0.488-0.167-0.742-0.233c-0.055-0.014-0.109-0.028-0.164-0.041 c-0.261-0.062-0.522-0.108-0.782-0.141c-0.079-0.01-0.157-0.014-0.236-0.021c-0.225-0.021-0.449-0.033-0.672-0.034 c-0.074,0-0.147,0-0.221,0.002c-0.262,0.007-0.521,0.026-0.778,0.06c-0.033,0.004-0.065,0.006-0.098,0.011 c-0.31,0.045-0.614,0.108-0.913,0.191c-14.57,4.032-28.309,11.386-39.745,21.271c-1.62,1.401-2.564,3.427-2.595,5.569 C30.002,233.122,30,234.061,30,235c0,26.994,5.256,52.781,14.78,76.406c0.019,0.049,0.04,0.098,0.06,0.146 c15.519,38.411,42.346,71.082,76.34,93.861c0.047,0.032,0.094,0.062,0.142,0.093C153.876,427.283,192.979,440,235,440 c42.022,0,81.125-12.717,113.68-34.494c0.046-0.031,0.093-0.06,0.139-0.091c33.995-22.78,60.823-55.451,76.342-93.862 C425.18,311.504,425.202,311.456,425.22,311.407z M415.364,294.745c-12.017-11.605-26.079-20.448-41.234-26.28 c2.284-14.819,8.352-28.738,17.59-40.501l8.303,33.758c0.842,3.42,3.905,5.71,7.277,5.71c0.593,0,1.195-0.071,1.797-0.219 c4.022-0.989,6.481-5.052,5.492-9.074l-8.297-33.732c6.674,3.017,12.992,6.851,18.706,11.414 C424.91,256.391,421.524,276.195,415.364,294.745z M63.708,224.406l-8.297,33.732c-0.989,4.022,1.47,8.085,5.492,9.074 c0.602,0.148,1.204,0.219,1.797,0.219c3.372,0,6.436-2.29,7.277-5.71l8.303-33.758c9.238,11.763,15.306,25.683,17.59,40.502 c-15.155,5.832-29.217,14.675-41.234,26.28c-6.161-18.55-9.547-38.355-9.635-58.926C50.717,231.257,57.034,227.423,63.708,224.406z M60.514,310.167c1.041-1.132,2.106-2.243,3.188-3.325c24.486-24.487,59.163-35.566,93.002-30.391l-57.783,57.783 c-2.929,2.929-2.929,7.678,0,10.606c1.465,1.465,3.384,2.197,5.304,2.197c1.919,0,3.839-0.732,5.304-2.197l57.782-57.782 c5.174,33.841-5.904,68.515-30.39,93.002c-3.616,3.616-7.488,6.979-11.552,10.039C97.049,370.021,74.448,342.388,60.514,310.167z M138.67,398.706c3.074-2.533,6.036-5.218,8.858-8.039c31.468-31.469,43.51-77.707,31.426-120.669 c-0.092-0.317-0.193-0.602-0.311-0.883c-0.018-0.042-0.039-0.083-0.058-0.125c-0.1-0.226-0.212-0.447-0.335-0.663 c-0.039-0.068-0.079-0.136-0.12-0.203c-0.116-0.19-0.242-0.374-0.376-0.555c-0.046-0.062-0.088-0.125-0.136-0.185 c-0.179-0.227-0.369-0.448-0.578-0.657c-0.214-0.214-0.435-0.404-0.661-0.583c-0.061-0.048-0.125-0.091-0.187-0.137 c-0.18-0.134-0.363-0.259-0.552-0.374c-0.068-0.041-0.136-0.082-0.205-0.121c-0.215-0.123-0.435-0.234-0.659-0.333 c-0.043-0.019-0.085-0.041-0.129-0.06c-0.28-0.118-0.564-0.219-0.853-0.301c-21.096-5.936-42.948-6.047-63.464-0.924 c-1.799-10.137-5.128-19.881-9.813-28.949h268.966c-4.684,9.068-8.014,18.811-9.812,28.948 c-20.514-5.123-42.366-5.012-63.435,0.915c-0.318,0.093-0.603,0.193-0.882,0.311c-0.043,0.018-0.084,0.04-0.127,0.059 c-0.225,0.1-0.445,0.211-0.662,0.334c-0.069,0.039-0.136,0.079-0.203,0.12c-0.189,0.116-0.374,0.242-0.554,0.376 c-0.062,0.046-0.125,0.089-0.185,0.136c-0.227,0.179-0.447,0.369-0.656,0.578c-0.214,0.214-0.404,0.435-0.583,0.662 c-0.047,0.06-0.09,0.123-0.136,0.185c-0.134,0.181-0.26,0.366-0.376,0.556c-0.041,0.067-0.08,0.134-0.119,0.202 c-0.123,0.217-0.235,0.438-0.335,0.664c-0.019,0.042-0.04,0.082-0.058,0.125c-0.118,0.281-0.219,0.566-0.302,0.857 c-12.093,42.989-0.051,89.226,31.417,120.696c2.822,2.821,5.783,5.505,8.857,8.038C303.067,415.401,270.136,425,235,425 C199.864,425,166.933,415.401,138.67,398.706z M344.632,390.099c-4.065-3.06-7.936-6.423-11.552-10.038 c-24.487-24.487-35.565-59.161-30.391-93.002l57.783,57.783c1.465,1.464,3.385,2.197,5.304,2.197s3.839-0.732,5.304-2.197 c2.929-2.929,2.929-7.678,0-10.606l-57.784-57.784c33.84-5.173,68.515,5.903,93.004,30.391c1.082,1.081,2.146,2.192,3.187,3.324 C395.552,342.388,372.952,370.021,344.632,390.099z"/> <path d="M198.796,264.946h72.242c4.143,0,7.5-3.358,7.5-7.5s-3.357-7.5-7.5-7.5h-72.242c-4.143,0-7.5,3.358-7.5,7.5 S194.653,264.946,198.796,264.946z"/> <path d="M206.067,279.946c-4.143,0-7.5,3.358-7.5,7.5s3.357,7.5,7.5,7.5h27.865c4.143,0,7.5-3.358,7.5-7.5s-3.357-7.5-7.5-7.5 H206.067z"/> <path d="M278.212,347.446c0-4.142-3.357-7.5-7.5-7.5h-41.424c-4.143,0-7.5,3.358-7.5,7.5s3.357,7.5,7.5,7.5h41.424 C274.854,354.946,278.212,351.588,278.212,347.446z"/> <path d="M282.652,369.946h-44.689c-4.143,0-7.5,3.358-7.5,7.5s3.357,7.5,7.5,7.5h44.689c4.143,0,7.5-3.358,7.5-7.5 S286.795,369.946,282.652,369.946z"/> <path d="M207.963,369.946h-20c-4.143,0-7.5,3.358-7.5,7.5s3.357,7.5,7.5,7.5h20c4.143,0,7.5-3.358,7.5-7.5 S212.105,369.946,207.963,369.946z"/> </g> </g>
</svg>