<!DOCTYPE svg PUBLIC "-//W3C//DTD SVG 1.1//EN" "http://www.w3.org/Graphics/SVG/1.1/DTD/svg11.dtd">
<!-- Uploaded to: SVG Repo, www.svgrepo.com, Transformed by: SVG Repo Mixer Tools -->
<svg height="800px" width="800px" version="1.1" id="Layer_1" xmlns="http://www.w3.org/2000/svg" xmlns:xlink="http://www.w3.org/1999/xlink" viewBox="0 0 450 450" xml:space="preserve" fill="white" stroke="white">
<g id="SVGRepo_bgCarrier" stroke-width="0"/>
<g id="SVGRepo_tracerCarrier" stroke-linecap="round" stroke-linejoin="round"/>
<g id="SVGRepo_iconCarrier"> <g> <g> <path style="fill:#3E81C8;" d="M180,315v112.15c0,8.188,6.662,14.85,14.85,14.85h0.3c8.143,0,14.775-6.587,14.85-14.712 l0.001-0.009C210.07,435.408,216.705,442,224.85,442h0.311c8.183,0,14.84-6.661,14.84-14.85V315H180z"/> <path style="fill:#3E81C8;" d="M221.443,283.879l-6.508,2.052c-3.827,1.207-7.889,1.403-11.904,0.524l-6.08-1.332L182.002,315 h55.002L221.443,283.879z"/> <path style="fill:#3E81C8;" d="M208,241c-12.682,0-23,10.317-23,23c0,12.683,10.318,23,23,23c12.683,0,23-10.317,23-23 S220.683,241,208,241z"/> <path style="fill:#F8A805;" d="M340.683,161.863c-5.612-50.869-40.527-94.642-88.95-111.518l-26.434-9.212l17.574,21.789 c3.911,4.85,7.576,10.514,10.896,16.84c11.551,21.971,18.813,51.476,20.452,83.081l0.306,5.905l5.735,1.439 c4.86,1.221,8.004,3.94,11.04,6.568c4.111,3.561,8.362,7.243,16.738,7.243s12.627-3.683,16.788-7.286 c2.86-2.462,5.817-5.007,10.184-6.306l6.403-1.904L340.683,161.863z"/> <path style="fill:#F8A805;" d="M274.179,162.217c-3.271-60.238-26.377-108.65-56.188-117.729l-10.331-3.146v127.352l5.948,1.579 c4.724,1.254,7.8,3.918,10.792,6.509c4.109,3.549,8.358,7.219,16.711,7.219c8.362,0,12.616-3.675,16.738-7.235 c2.921-2.521,5.94-5.129,10.507-6.413l6.171-1.734L274.179,162.217z"/> <path style="fill:#F8A805;" d="M197.328,44.488c-29.817,9.088-52.926,57.5-56.196,117.729l-0.348,6.403l6.174,1.732 c4.573,1.284,7.593,3.892,10.504,6.404c4.111,3.561,8.362,7.243,16.728,7.243c8.375,0,12.626-3.682,16.728-7.234 c2.988-2.579,6.078-5.246,10.803-6.505l5.94-1.583V41.339L197.328,44.488z"/> <path style="fill:#F8A805;" d="M163.587,50.346C115.169,67.22,80.25,110.992,74.628,161.861l-0.734,6.642l6.404,1.905 c4.397,1.309,7.365,3.871,10.234,6.349c4.111,3.562,8.363,7.243,16.737,7.243s12.626-3.682,16.735-7.241 c3.038-2.629,6.18-5.349,11.05-6.569l5.74-1.438l0.304-5.909c1.628-31.598,8.888-61.102,20.44-83.076 c3.334-6.337,7.004-12.004,10.907-16.843l17.574-21.789L163.587,50.346z"/> <path style="fill:#EFEFEF;" d="M130.304,374.333C127.176,359.654,114.011,349,99,349c-5.998,0-11.841,1.668-16.899,4.825 C76.41,340.566,63.417,332,49,332c-19.851,0-36,16.149-36,36c0,9.417,3.206,16,3.206,16h116.159L130.304,374.333z"/> <path style="fill:#EFEFEF;" d="M436.305,50.332C433.176,35.653,420.011,25,405,25c-5.998,0-11.841,1.668-16.896,4.831 C382.424,16.569,369.43,8,355,8c-19.851,0-36,16.149-36,36c0,9,3.207,16,3.207,16h116.158L436.305,50.332z"/> <g> <path d="M349.11,171.26c0.16-0.7,0.23-1.42,0.19-2.15c-3.86-72.57-61.87-129.97-133.64-133.96V27c0-4.42-3.58-8-8-8s-8,3.58-8,8 v8.15C127.88,39.14,69.88,96.54,66.02,169.11c-0.12,2.18,0.66,4.31,2.16,5.9c0.04,0.05,0.08,0.08,0.12,0.12 c0.25,0.91,0.66,1.79,1.25,2.6l50.61,69.09v44.76c0,17.32,14.09,31.42,31.42,31.42H172v104.15c0,12.6,10.26,22.85,22.85,22.85 h0.3c5.67,0,10.86-2.08,14.85-5.5c4,3.42,9.19,5.5,14.85,5.5h0.31c12.59,0,22.84-10.25,22.84-22.85V323h15.73 c17.33,0,31.43-14.1,31.43-31.42V250c0-0.14-0.02-0.28-0.02-0.42l52.62-71.85C349.18,175.79,349.59,173.43,349.11,171.26z M215.66,52.14c26.07,7.94,47.46,53.97,50.53,110.51c-6.26,1.76-10.35,5.28-13.57,8.06c-3.82,3.3-6.12,5.29-11.51,5.29 c-5.38,0-7.68-1.99-11.49-5.28c-3.29-2.85-7.48-6.46-13.96-8.18L215.66,52.14L215.66,52.14z M199.66,52.14v110.39 c-6.49,1.73-10.68,5.34-13.97,8.18c-3.81,3.3-6.11,5.29-11.5,5.29c-5.38,0-7.68-1.99-11.49-5.29c-3.22-2.78-7.31-6.3-13.58-8.06 C152.19,106.11,173.58,60.09,199.66,52.14z M82.58,162.74C88,113.7,121.43,73.51,166.22,57.9c-4.21,5.22-8.15,11.28-11.76,18.14 c-12.16,23.13-19.66,53.59-21.35,86.39c-6.7,1.68-10.99,5.38-14.34,8.28c-3.81,3.3-6.12,5.29-11.5,5.29 c-5.39,0-7.69-1.99-11.5-5.29C92.61,167.98,88.63,164.54,82.58,162.74z M151.58,307c-8.5,0-15.42-6.92-15.42-15.42v-22.91 L164.23,307H151.58z M232,427.15c0,3.78-3.07,6.85-6.84,6.85h-0.31c-3.77,0-6.85-3.07-6.85-6.85c0-0.37-0.03-0.72-0.08-1.07 c0.05-0.36,0.08-0.71,0.08-1.08v-44c0-4.42-3.58-8-8-8c-4.41,0-8,3.58-8,8v44c0,0.37,0.04,0.72,0.09,1.08 c-0.05,0.35-0.09,0.7-0.09,1.07c0,3.78-3.07,6.85-6.85,6.85h-0.3c-3.77,0-6.85-3.07-6.85-6.85V323h44L232,427.15L232,427.15z M208,279c-8.27,0-15-6.73-15-15s6.73-15,15-15c8.28,0,15,6.73,15,15C223,272.27,216.28,279,208,279z M224.06,307h-29.11 l6.37-12.73c2.15,0.47,4.39,0.73,6.68,0.73c3.26,0,6.39-0.51,9.34-1.44L224.06,307z M279.16,291.58c0,8.5-6.92,15.42-15.43,15.42 h-10.65l26.08-35.6V291.58z M238.42,299.94l-7.26-14.52c-0.09-0.18-0.19-0.34-0.29-0.51c5.05-5.52,8.13-12.86,8.13-20.91 c0-17.09-13.9-31-31-31c-17.09,0-31,13.91-31,31c0,9.05,3.91,17.21,10.12,22.89l-7.22,14.43l-44.59-60.88 c-0.41-0.82-0.95-1.56-1.6-2.2l-34.65-47.31c2.4,0.66,5.1,1.07,8.21,1.07c11.34,0,17.48-5.31,21.96-9.18 c3.81-3.3,6.11-5.29,11.5-5.29h0.08c5.33,0.02,7.62,2,11.42,5.29c4.48,3.87,10.62,9.18,21.96,9.18c11.35,0,17.48-5.31,21.97-9.19 c3.81-3.29,6.11-5.28,11.49-5.28c5.39,0,7.69,1.99,11.5,5.29c4.48,3.87,10.62,9.18,21.96,9.18c11.35,0,17.49-5.31,21.97-9.18 c3.8-3.29,6.09-5.27,11.49-5.29c5.39,0,7.69,1.99,11.51,5.29c4.48,3.87,10.62,9.18,21.96,9.18c4.3,0,7.85-0.76,10.85-1.92 L238.42,299.94z M319.54,170.71c-3.81,3.3-6.11,5.29-11.5,5.29c-5.38,0-7.69-1.99-11.5-5.29c-3.35-2.9-7.64-6.6-14.33-8.28 c-1.7-32.8-9.2-63.26-21.36-86.39c-3.6-6.86-7.54-12.92-11.75-18.14c44.79,15.61,78.22,55.8,83.63,104.84 C326.68,164.54,322.7,167.99,319.54,170.71z"/> <path d="M99,341c-4.65,0-9.22,0.8-13.54,2.35C77.38,331.39,63.8,324,49,324c-24.26,0-44,19.74-44,44 c0,6.87,1.55,13.45,4.59,19.57c1.36,2.71,4.13,4.43,7.16,4.43h114.11c4.14,0,7.6-3.15,7.97-7.27c0.12-1.26,0.17-2.52,0.17-3.73 C139,358.94,121.06,341,99,341z M22.16,376c-0.77-2.57-1.16-5.25-1.16-8c0-15.44,12.57-28,28-28c11.22,0,21.32,6.66,25.75,16.98 c0.93,2.14,2.74,3.78,4.96,4.48c2.23,0.69,4.65,0.38,6.63-0.85C90.12,358.25,94.5,357,99,357c11.52,0,21.17,8.16,23.48,19H22.16z "/> <path d="M405,17c-4.65,0-9.22,0.8-13.54,2.35C383.38,7.39,369.8,0,355,0c-24.26,0-44,19.74-44,44c0,6.87,1.55,13.45,4.59,19.57 c1.36,2.71,4.13,4.43,7.16,4.43h114.12c4.13,0,7.59-3.16,7.96-7.28c0.12-1.26,0.17-2.51,0.17-3.72C445,34.94,427.06,17,405,17z M328.16,52c-0.77-2.57-1.16-5.25-1.16-8c0-15.44,12.57-28,28-28c11.22,0,21.33,6.66,25.75,16.98c0.92,2.14,2.74,3.78,4.96,4.48 c2.23,0.69,4.65,0.38,6.63-0.85C396.12,34.25,400.5,33,405,33c11.52,0,21.17,8.16,23.48,19H328.16z"/> </g> </g> </g> </g>
</svg>