<!DOCTYPE svg PUBLIC "-//W3C//DTD SVG 1.1//EN" "http://www.w3.org/Graphics/SVG/1.1/DTD/svg11.dtd">
<!-- Uploaded to: SVG Repo, www.svgrepo.com, Transformed by: SVG Repo Mixer Tools -->
<svg width="800px" height="800px" viewBox="0 0 128 128" xmlns="http://www.w3.org/2000/svg" xmlns:xlink="http://www.w3.org/1999/xlink" aria-hidden="true" role="img" class="iconify iconify--noto" preserveAspectRatio="xMidYMid meet" fill="white" stroke="white">
<g id="SVGRepo_bgCarrier" stroke-width="0"/>
<g id="SVGRepo_tracerCarrier" stroke-linecap="round" stroke-linejoin="round"/>
<g id="SVGRepo_iconCarrier"> <path fill="none" stroke="#82aec0" stroke-width="3" stroke-linecap="round" stroke-miterlimit="10" d="M75.27 5.53L67.8 112.21"> </path> <path d="M11.82 103.13s6.54-26.89 21.79-53.35C47.34 25.96 74.13 4 74.13 4s-8.09 34.67-9.6 55.27c-1.92 26.18 2.53 38.51 2.53 38.51S56.01 92.8 43.96 94c-17.58 1.75-32.14 9.13-32.14 9.13z" fill="#ff7043"> </path> <path fill="#f4511e" d="M76.27 92.02l32.6-1.74L76.84 5.26z"> </path> <path d="M64.05 71.92c-13.26-2.53-29.67-1.98-42.29 2.04c-1.94 4.58-4.44 11.48-4.44 11.48c13.84-6.34 32.08-7.08 47.1-3.23c-.22-2.99-.37-6.41-.37-10.29z" fill="#ffab91"> </path> <path d="M34.38 48.48c-.26.43-.52.87-.78 1.3c-2.03 3.52-3.86 7.06-5.52 10.55c10.61-3.75 25.09-3.38 36.48-1.6c.25-3.19.65-6.69 1.15-10.35c-9.52-1.38-22.02-1.88-31.33.1z" fill="#ffab91"> </path> <path d="M52.49 24.8c-3.05 3.34-6.16 6.95-9.13 10.74c7.04-1.25 17-.57 24.3.41c.57-3.3 1.17-6.56 1.77-9.66c-5.03-.75-11.99-1.69-16.94-1.49z" fill="#ffab91"> </path> <path fill="#bf360c" d="M76.34 81.48l28.41-2.14l-3.13-8.29l-25.22 1.91z"> </path> <path fill="#bf360c" d="M93.49 49.47l-16.95 1.27l-.05 8.53l20.16-1.41z"> </path> <path fill="#bf360c" d="M85.35 27.87l-8.67.65l-.05 8.59l11.87-.9z"> </path> <path d="M84.25 99.04L52.59 96.4s-5.44.22-10.17.22s-7.14 10.03-7.14 10.03l54.68 3.2l-1.9-7.58a4.305 4.305 0 0 0-3.81-3.23z" fill="#e0e0e0"> </path> <path d="M46.21 107.29s3.13-10.89 6.38-10.89c2.67 0 24.49 1.96 32.1 2.65c1.57.14 2.87 1.26 3.25 2.79l2 8.01l-43.73-2.56z" fill="#82aec0"> </path> <path d="M24.31 124c-9.67 0-13.35-17.9-13.78-20.59a.62.62 0 0 1 .69-.72c35.65 4.31 97.99 7.12 107.13 7.52c.51.02.8.58.54 1.01l-6.84 11.07a3.62 3.62 0 0 1-3.07 1.71H43.59H24.31z" fill="#b9e4ea"> </path> <g fill="#37474f"> <circle cx="62.01" cy="102.44" r="2.83"> </circle> <circle cx="72.24" cy="103.18" r="2.66"> </circle> <circle cx="82.46" cy="103.92" r="2.49"> </circle> </g> <g fill="#e0e0e0"> <path d="M62.01 99.61c-.23 0-.45.03-.66.09c1.24.3 2.17 1.41 2.17 2.75s-.93 2.45-2.17 2.75c.21.05.43.09.66.09c1.57 0 2.83-1.27 2.83-2.83s-1.26-2.85-2.83-2.85z"> </path> <path d="M72.24 100.52c-.23 0-.45.04-.66.09c1.15.3 2 1.33 2 2.57c0 1.24-.85 2.27-2 2.57c.21.06.43.09.66.09c1.47 0 2.66-1.19 2.66-2.66c0-1.47-1.19-2.66-2.66-2.66z"> </path> <path d="M82.46 101.43c-.23 0-.45.04-.66.1c1.05.29 1.82 1.24 1.82 2.39c0 1.14-.77 2.09-1.82 2.39c.21.06.43.1.66.1a2.49 2.49 0 0 0 0-4.98z"> </path> </g> <g> <path d="M116.7 114.72c-77.41-1.38-104.5-4.6-104.5-4.6c-.53-1.63-1-3.53-1-3.53c35.62 3.26 106.35 6.6 106.35 6.6l-.85 1.53z" fill="#bf360c"> </path> </g> <path fill="none" stroke="#82aec0" stroke-width="3" stroke-linecap="round" stroke-miterlimit="10" d="M71.09 91.79h36.77"> </path> </g>
</svg>